
<svg xmlns="http://www.w3.org/2000/svg" data-name="Layer 1" viewBox="0 0 512 640" x="0px" y="0px"><title>d2</title><path d="M256.71,107.64h155c12.53,0,17.78,5.21,17,17.72-2.44,37.73-5.1,75.44-7.66,113.16q-3.23,47.61-6.42,95.22-3.77,55.08-7.63,110.16c-1.16,16.95-2.32,33.9-3.32,50.86-0.57,9.6-5.91,15.12-15.52,15.13q-132.23.06-264.45,0c-9.68,0-15.08-5.27-15.68-15q-5.15-82.54-10.28-165.08-5.74-90.51-11.63-181-0.8-12.47-1.38-24.95c-0.48-10.44,5-16.19,15.57-16.19Q178.48,107.61,256.71,107.64Zm59,178.15q0,64.47,0,128.94a32.05,32.05,0,0,0,.42,6.45A14.33,14.33,0,0,0,329.83,433c14.53,0.85,21.23-1.7,23.76-9.59a31.17,31.17,0,0,0,1-9.35q0.09-85.71,0-171.42,0-43.23,0-86.46c0-10.61-5.82-16.39-16.32-16.51-1.5,0-3,0-4.5,0-12.85,0-18.09,5.29-18.09,18.25Q315.74,221.83,315.75,285.8Zm-129,0q0-65-.06-129.93a22.1,22.1,0,0,0-1.53-8.72c-2.81-6.34-8.23-8.6-15-8.59-8.11,0-16.55-.67-20.55,8.47-1.4,3.2-1.64,7.11-1.65,10.7q-0.14,86.7-.06,173.41,0,42.23,0,84.45c0,10.58,5.82,16.34,16.35,16.44,1.5,0,3,0,4.5,0,12.75-.09,18-5.19,18-17.8Q186.75,350.06,186.7,285.84Zm82.08-1c0-43.47.09-86.95-.16-130.42,0-3.87-1.68-8.06-3.59-11.54-4.08-7.43-27.53-7.32-31.23,0-2,4-3.62,8.67-3.65,13-0.27,40-.16,80-0.16,119.93q0,69.21,0,138.42c0,11.23,5.66,16.81,16.93,16.87,1.67,0,3.33,0,5,0,11.32-.11,16.83-5.6,16.83-16.91Q268.8,349.56,268.78,284.85Z"/><path d="M423,64.93h6c11.66,0,23.32,0,35,0,7.74,0,12.67,3.82,14,11.42a35.73,35.73,0,0,1,.12,11.4c-1.22,7.94-6.36,11.92-14.65,11.92q-80.71,0-161.42,0l-251.88,0C41.67,99.68,37.43,97.27,35,91c-3-7.59-1.45-18.78,3.87-22.82a16.51,16.51,0,0,1,9.08-3.14c16-.31,32-0.15,48-0.16h5.88c0.1-2.14.26-3.91,0.26-5.67,0-13.33,0-26.65,0-40,0.06-11.53,5.74-17.18,17.26-17.18q143.43,0,286.87,0c11.22,0,16.77,5.62,16.81,17,0,13.33,0,26.65,0,40C423,60.83,423,62.62,423,64.93Z"/></svg>